# OBJ written from C:\Users\Kyle\Desktop\torus-6sides.obj
# Units	meters

o Mesh
v -0.385 3.72529e-009 3.72529e-009
v -0.1925 3.72529e-009 -0.33342
v 0.1925 3.72529e-009 -0.33342
v 0.385 3.72529e-009 3.72529e-009
v 0.1925 3.72529e-009 0.33342
v -0.1925 3.72529e-009 0.33342
v -0.4405 0.0961288 3.72529e-009
v -0.22025 0.0961288 -0.381484
v 0.22025 0.0961288 -0.381484
v 0.4405 0.0961288 3.72529e-009
v 0.22025 0.0961288 0.381484
v -0.22025 0.0961288 0.381484
v -0.5515 0.0961288 3.72529e-009
v -0.27575 0.0961288 -0.477613
v 0.27575 0.0961288 -0.477613
v 0.5515 0.0961288 3.72529e-009
v 0.27575 0.0961288 0.477613
v -0.27575 0.0961288 0.477613
v -0.607 3.72529e-009 3.72529e-009
v -0.3035 3.72529e-009 -0.525677
v 0.3035 3.72529e-009 -0.525677
v 0.607 3.72529e-009 3.72529e-009
v 0.3035 3.72529e-009 0.525677
v -0.3035 3.72529e-009 0.525677
v -0.5515 -0.0961288 3.72529e-009
v -0.27575 -0.0961288 -0.477613
v 0.27575 -0.0961288 -0.477613
v 0.5515 -0.0961288 3.72529e-009
v 0.27575 -0.0961288 0.477613
v -0.27575 -0.0961288 0.477613
v -0.4405 -0.0961288 3.72529e-009
v -0.22025 -0.0961288 -0.381484
v 0.22025 -0.0961288 -0.381484
v 0.4405 -0.0961288 3.72529e-009
v 0.22025 -0.0961288 0.381484
v -0.22025 -0.0961288 0.381484
vn 0.774597 0.447214 0.447214
vn -6.92364e-008 0.447214 0.894427
vn -0.774597 0.447214 0.447214
vn -0.774597 0.447214 -0.447214
vn 0 0.447214 -0.894427
vn 0.774597 0.447214 -0.447214
vn 0 1 0
vn -0.774597 0.447213 -0.447214
vn 4.83336e-008 0.447214 -0.894427
vn 0.774597 0.447213 -0.447214
vn 0.774597 0.447213 0.447214
vn 0 0.447213 0.894427
vn -0.774597 0.447213 0.447214
vn -0.774597 -0.447214 -0.447214
vn 8.78287e-008 -0.447214 -0.894427
vn 0.774597 -0.447214 -0.447214
vn 0.774597 -0.447214 0.447214
vn 0 -0.447214 0.894427
vn -0.774597 -0.447214 0.447214
vn 0 -1 0
vn 0.774597 -0.447214 0.447214
vn -6.05131e-008 -0.447214 0.894427
vn -0.774597 -0.447214 0.447214
vn -0.774597 -0.447214 -0.447214
vn 0 -0.447214 -0.894427
vn 0.774597 -0.447214 -0.447214
vt 0 0
vt 0.166667 0
vt 0.166667 0.166667
vt 0 0.166667
vt 0.333333 0
vt 0.333333 0.166667
vt 0.5 0
vt 0.5 0.166667
vt 0.666667 0
vt 0.666667 0.166667
vt 0.833333 0
vt 0.833333 0.166667
vt 1 0
vt 1 0.166667
vt 0.166667 0.333333
vt 0 0.333333
vt 0.333333 0.333333
vt 0.5 0.333333
vt 0.666667 0.333333
vt 0.833333 0.333333
vt 1 0.333333
vt 0.166667 0.5
vt 0 0.5
vt 0.333333 0.5
vt 0.5 0.5
vt 0.666667 0.5
vt 0.833333 0.5
vt 1 0.5
vt 0.166667 0.666667
vt 0 0.666667
vt 0.333333 0.666667
vt 0.5 0.666667
vt 0.666667 0.666667
vt 0.833333 0.666667
vt 1 0.666667
vt 0.166667 0.833333
vt 0 0.833333
vt 0.333333 0.833333
vt 0.5 0.833333
vt 0.666667 0.833333
vt 0.833333 0.833333
vt 1 0.833333
vt 0.166667 1
vt 0 1
vt 0.333333 1
vt 0.5 1
vt 0.666667 1
vt 0.833333 1
vt 1 1
mtllib torus-6sides.mtl
usemtl Default
g Default
f 1/1/1 2/2/1 8/3/1 7/4/1
f 2/2/2 3/5/2 9/6/2 8/3/2
f 3/5/3 4/7/3 10/8/3 9/6/3
f 4/7/4 5/9/4 11/10/4 10/8/4
f 5/9/5 6/11/5 12/12/5 11/10/5
f 6/11/6 1/13/6 7/14/6 12/12/6
f 7/4/7 8/3/7 14/15/7 13/16/7
f 8/3/7 9/6/7 15/17/7 14/15/7
f 9/6/7 10/8/7 16/18/7 15/17/7
f 10/8/7 11/10/7 17/19/7 16/18/7
f 11/10/7 12/12/7 18/20/7 17/19/7
f 12/12/7 7/14/7 13/21/7 18/20/7
f 13/16/8 14/15/8 20/22/8 19/23/8
f 14/15/9 15/17/9 21/24/9 20/22/9
f 15/17/10 16/18/10 22/25/10 21/24/10
f 16/18/11 17/19/11 23/26/11 22/25/11
f 17/19/12 18/20/12 24/27/12 23/26/12
f 18/20/13 13/21/13 19/28/13 24/27/13
f 19/23/14 20/22/14 26/29/14 25/30/14
f 20/22/15 21/24/15 27/31/15 26/29/15
f 21/24/16 22/25/16 28/32/16 27/31/16
f 22/25/17 23/26/17 29/33/17 28/32/17
f 23/26/18 24/27/18 30/34/18 29/33/18
f 24/27/19 19/28/19 25/35/19 30/34/19
f 25/30/20 26/29/20 32/36/20 31/37/20
f 26/29/20 27/31/20 33/38/20 32/36/20
f 27/31/20 28/32/20 34/39/20 33/38/20
f 28/32/20 29/33/20 35/40/20 34/39/20
f 29/33/20 30/34/20 36/41/20 35/40/20
f 30/34/20 25/35/20 31/42/20 36/41/20
f 31/37/21 32/36/21 2/43/21 1/44/21
f 32/36/22 33/38/22 3/45/22 2/43/22
f 33/38/23 34/39/23 4/46/23 3/45/23
f 34/39/24 35/40/24 5/47/24 4/46/24
f 35/40/25 36/41/25 6/48/25 5/47/25
f 36/41/26 31/42/26 1/49/26 6/48/26
